<svg id="svg" version="1.1" xmlns="http://www.w3.org/2000/svg" xmlns:xlink="http://www.w3.org/1999/xlink" width="400" height="400" viewBox="0, 0, 400,400"><g id="svgg"><path id="path0" d="M0.000 200.000 L 0.000 400.000 200.000 400.000 L 400.000 400.000 400.000 200.000 L 400.000 0.000 200.000 0.000 L 0.000 0.000 0.000 200.000 M302.850 40.172 C 335.422 44.398,357.592 65.210,362.859 96.508 C 364.261 104.842,364.437 116.318,364.437 199.609 C 364.437 275.641,364.244 292.341,363.264 301.367 C 359.803 333.254,337.141 355.476,303.827 359.652 C 296.581 360.560,106.151 360.747,98.047 359.854 C 63.083 356.001,39.943 333.513,36.255 299.805 C 35.502 292.924,35.502 108.066,36.255 101.758 C 40.768 63.940,65.505 41.304,103.906 39.852 C 116.813 39.364,298.878 39.657,302.850 40.172 M168.956 97.678 C 158.336 99.329,149.735 106.711,147.514 116.082 C 147.275 117.089,147.216 117.110,145.801 116.681 C 142.945 115.815,132.998 116.091,129.697 117.128 C 114.480 121.906,106.232 136.973,110.659 151.904 C 111.603 155.086,111.609 155.180,110.874 155.372 C 88.897 161.119,80.352 194.473,96.802 210.303 L 98.375 211.816 96.297 214.266 C 79.753 233.767,94.108 262.659,120.355 262.688 L 126.453 262.695 126.893 265.526 C 131.490 295.098,177.573 305.135,190.124 279.297 C 193.242 272.877,193.015 280.220,192.888 189.835 L 192.773 109.163 191.500 106.577 C 188.284 100.044,178.522 96.191,168.956 97.678 M250.394 102.357 C 223.403 105.134,203.031 126.199,200.412 154.038 C 199.131 167.650,202.073 177.255,212.455 193.359 C 220.673 206.107,222.656 212.202,222.656 224.718 C 222.656 231.857,224.792 235.679,229.690 237.306 C 232.795 238.337,278.618 238.300,281.913 237.263 C 287.294 235.571,288.998 232.368,289.475 223.049 C 290.128 210.293,291.602 206.056,299.600 193.924 C 308.941 179.757,311.561 173.409,312.503 162.660 C 315.566 127.722,285.700 98.724,250.394 102.357 M175.703 113.049 C 176.283 113.351,177.155 114.023,177.641 114.543 L 178.523 115.488 178.422 192.998 L 178.320 270.508 177.222 272.744 C 171.717 283.955,149.724 281.003,142.877 268.135 C 139.807 262.364,139.914 256.644,143.206 250.429 C 147.873 241.623,139.059 236.046,131.384 242.949 C 123.603 249.948,114.141 250.098,108.047 243.321 C 99.895 234.253,104.364 221.744,116.961 218.368 C 127.670 215.498,126.132 203.516,115.055 203.516 C 109.400 203.516,103.705 197.676,102.768 190.918 C 101.231 179.829,110.530 168.267,120.629 168.710 C 121.129 168.732,122.434 169.592,123.559 170.640 C 133.343 179.762,142.010 182.787,145.950 178.455 C 150.010 173.992,148.473 168.647,142.361 165.976 C 128.750 160.027,121.124 147.562,125.555 138.506 C 129.266 130.919,140.758 128.946,149.302 134.428 C 155.216 138.223,159.685 135.145,160.526 126.696 C 161.531 116.613,169.236 109.684,175.703 113.049 M266.877 118.079 C 293.640 125.195,306.964 156.302,292.804 178.609 C 291.677 180.384,289.247 184.217,287.404 187.127 C 279.647 199.371,276.374 208.310,275.896 218.555 C 275.769 221.262,275.491 223.177,275.143 223.730 L 274.591 224.609 255.859 224.609 L 237.127 224.609 236.576 223.730 C 236.211 223.149,235.949 221.130,235.802 217.773 C 235.324 206.822,232.229 198.336,223.762 184.766 C 216.227 172.688,215.233 170.426,214.416 163.502 C 212.000 143.009,226.003 122.911,246.094 118.040 C 247.920 117.597,249.766 117.148,250.195 117.041 C 252.622 116.441,263.189 117.098,266.877 118.079 M250.156 136.484 L 248.828 137.813 248.828 145.859 L 248.828 153.906 240.977 153.906 L 233.125 153.906 231.797 155.234 L 230.469 156.563 230.469 160.892 C 230.469 165.123,230.495 165.251,231.608 166.498 L 232.747 167.773 240.787 167.893 L 248.828 168.013 248.828 175.583 C 248.828 186.381,249.138 186.834,256.381 186.638 C 260.609 186.524,260.614 186.522,261.752 185.248 L 262.891 183.972 262.891 175.970 L 262.891 167.969 270.527 167.969 C 281.164 167.969,281.641 167.650,281.641 160.527 L 281.641 156.562 280.312 155.234 L 278.984 153.906 270.937 153.906 L 262.891 153.906 262.891 145.859 L 262.891 137.813 261.563 136.484 L 260.234 135.156 255.859 135.156 L 251.484 135.156 250.156 136.484 M230.252 247.412 C 225.141 249.791,224.084 252.705,224.311 263.791 C 224.503 273.200,224.963 275.374,227.778 280.166 C 239.207 299.629,271.683 299.976,283.133 280.759 C 287.782 272.957,288.391 254.635,284.166 249.699 C 281.290 246.339,282.568 246.484,255.834 246.488 L 232.227 246.492 230.252 247.412 " stroke="none" fill="#fbfbfb" fill-rule="evenodd"></path><path id="path1" d="M103.906 39.852 C 65.505 41.304,40.768 63.940,36.255 101.758 C 35.502 108.066,35.502 292.924,36.255 299.805 C 39.943 333.513,63.083 356.001,98.047 359.854 C 106.151 360.747,296.581 360.560,303.827 359.652 C 337.141 355.476,359.803 333.254,363.264 301.367 C 364.244 292.341,364.437 275.641,364.437 199.609 C 364.437 116.318,364.261 104.842,362.859 96.508 C 357.592 65.210,335.422 44.398,302.850 40.172 C 298.878 39.657,116.813 39.364,103.906 39.852 M179.975 98.277 C 185.759 99.770,189.462 102.436,191.500 106.577 L 192.773 109.163 192.888 189.835 C 193.015 280.220,193.242 272.877,190.124 279.297 C 177.573 305.135,131.490 295.098,126.893 265.526 L 126.453 262.695 120.355 262.688 C 94.108 262.659,79.753 233.767,96.297 214.266 L 98.375 211.816 96.802 210.303 C 80.352 194.473,88.897 161.119,110.874 155.372 C 111.609 155.180,111.603 155.086,110.659 151.904 C 106.232 136.973,114.480 121.906,129.697 117.128 C 132.998 116.091,142.945 115.815,145.801 116.681 C 147.216 117.110,147.275 117.089,147.514 116.082 C 150.627 102.946,165.806 94.621,179.975 98.277 M267.249 103.158 C 295.173 108.152,314.997 134.217,312.503 162.660 C 311.561 173.409,308.941 179.757,299.600 193.924 C 291.602 206.056,290.128 210.293,289.475 223.049 C 288.998 232.368,287.294 235.571,281.913 237.263 C 278.618 238.300,232.795 238.337,229.690 237.306 C 224.792 235.679,222.656 231.857,222.656 224.718 C 222.656 212.202,220.673 206.107,212.455 193.359 C 202.073 177.255,199.131 167.650,200.412 154.038 C 203.651 119.602,233.241 97.077,267.249 103.158 M169.922 112.865 C 164.278 114.588,161.295 118.979,160.526 126.696 C 159.685 135.145,155.216 138.223,149.302 134.428 C 140.758 128.946,129.266 130.919,125.555 138.506 C 121.124 147.562,128.750 160.027,142.361 165.976 C 148.473 168.647,150.010 173.992,145.950 178.455 C 142.010 182.787,133.343 179.762,123.559 170.640 C 122.434 169.592,121.129 168.732,120.629 168.710 C 110.530 168.267,101.231 179.829,102.768 190.918 C 103.705 197.676,109.400 203.516,115.055 203.516 C 126.132 203.516,127.670 215.498,116.961 218.368 C 104.364 221.744,99.895 234.253,108.047 243.321 C 114.141 250.098,123.603 249.948,131.384 242.949 C 139.059 236.046,147.873 241.623,143.206 250.429 C 139.914 256.644,139.807 262.364,142.877 268.135 C 149.724 281.003,171.717 283.955,177.222 272.744 L 178.320 270.508 178.422 192.998 L 178.523 115.488 177.641 114.543 C 175.863 112.640,172.824 111.979,169.922 112.865 M250.195 117.041 C 249.766 117.148,247.920 117.597,246.094 118.040 C 226.003 122.911,212.000 143.009,214.416 163.502 C 215.233 170.426,216.227 172.688,223.762 184.766 C 232.229 198.336,235.324 206.822,235.802 217.773 C 235.949 221.130,236.211 223.149,236.576 223.730 L 237.127 224.609 255.859 224.609 L 274.591 224.609 275.143 223.730 C 275.491 223.177,275.769 221.262,275.896 218.555 C 276.374 208.310,279.647 199.371,287.404 187.127 C 289.247 184.217,291.677 180.384,292.804 178.609 C 306.964 156.302,293.640 125.195,266.877 118.079 C 263.189 117.098,252.622 116.441,250.195 117.041 M261.563 136.484 L 262.891 137.813 262.891 145.859 L 262.891 153.906 270.937 153.906 L 278.984 153.906 280.312 155.234 L 281.641 156.562 281.641 160.527 C 281.641 167.650,281.164 167.969,270.527 167.969 L 262.891 167.969 262.891 175.970 L 262.891 183.972 261.752 185.248 C 260.614 186.522,260.609 186.524,256.381 186.638 C 249.138 186.834,248.828 186.381,248.828 175.583 L 248.828 168.013 240.787 167.893 L 232.747 167.773 231.608 166.498 C 230.495 165.251,230.469 165.123,230.469 160.892 L 230.469 156.563 231.797 155.234 L 233.125 153.906 240.977 153.906 L 248.828 153.906 248.828 145.859 L 248.828 137.813 250.156 136.484 L 251.484 135.156 255.859 135.156 L 260.234 135.156 261.563 136.484 M281.126 247.300 C 285.915 249.618,286.838 252.411,286.642 263.981 C 286.475 273.840,286.053 275.858,283.133 280.759 C 271.683 299.976,239.207 299.629,227.778 280.166 C 224.963 275.374,224.503 273.200,224.311 263.791 C 224.084 252.705,225.141 249.791,230.252 247.412 L 232.227 246.492 255.834 246.488 C 278.978 246.484,279.474 246.500,281.126 247.300 " stroke="none" fill="#217cb7" fill-rule="evenodd"></path></g></svg>