<svg width="32" height="32" viewBox="0 0 40 40" fill="none" xmlns="http://www.w3.org/2000/svg">
  <path d="M20 2C15 2 10 7 10 12C10 17 13 20 13 25C13 30 10 35 10 35" stroke="#ec4899" stroke-width="3" stroke-linecap="round"/>
  <path d="M20 2C25 2 30 7 30 12C30 17 27 20 27 25C27 30 30 35 30 35" stroke="#06b6d4" stroke-width="3" stroke-linecap="round"/>
  <circle cx="10" cy="12" r="4" fill="#ec4899"/>
  <circle cx="30" cy="12" r="4" fill="#06b6d4"/>
  <circle cx="13" cy="25" r="4" fill="#ec4899"/>
  <circle cx="27" cy="25" r="4" fill="#06b6d4"/>
  <line x1="14" y1="12" x2="26" y2="12" stroke="#0a3d3d" stroke-width="2"/>
  <line x1="17" y1="25" x2="23" y2="25" stroke="#0a3d3d" stroke-width="2"/>
</svg>
